<?xml version="1.0" encoding="UTF-8" ?><svg viewBox="0 0 180 180" xmlns="http://www.w3.org/2000/svg" xmlns:xlink="http://www.w3.org/1999/xlink"><style>:root>svg{display:none}:root>svg:target{display:block}</style><svg viewBox="0 0 180 180" id="0" xmlns="http://www.w3.org/2000/svg"><path fill="#dc3545" d="M0 0h180v180H0z"/><text fill="#fff" font-size="96" text-anchor="middle" x="90" y="125" font-family="sans-serif">0</text></svg><svg viewBox="0 0 180 180" id="1" xmlns="http://www.w3.org/2000/svg"><path fill="#fd7e14" d="M0 0h180v180H0z"/><text fill="#fff" font-size="96" text-anchor="middle" x="90" y="125" font-family="sans-serif">1</text></svg><svg viewBox="0 0 180 180" id="2" xmlns="http://www.w3.org/2000/svg"><path fill="#ffc107" d="M0 0h180v180H0z"/><text fill="#fff" font-size="96" text-anchor="middle" x="90" y="125" font-family="sans-serif">2</text></svg><svg viewBox="0 0 180 180" id="3" xmlns="http://www.w3.org/2000/svg"><path fill="#198754" d="M0 0h180v180H0z"/><text fill="#fff" font-size="96" text-anchor="middle" x="90" y="125" font-family="sans-serif">3</text></svg><svg viewBox="0 0 180 180" id="4" xmlns="http://www.w3.org/2000/svg"><path fill="#20c997" d="M0 0h180v180H0z"/><text fill="#fff" font-size="96" text-anchor="middle" x="90" y="125" font-family="sans-serif">4</text></svg><svg viewBox="0 0 180 180" id="5" xmlns="http://www.w3.org/2000/svg"><path fill="#0dcaf0" d="M0 0h180v180H0z"/><text fill="#fff" font-size="96" text-anchor="middle" x="90" y="125" font-family="sans-serif">5</text></svg><svg viewBox="0 0 180 180" id="6" xmlns="http://www.w3.org/2000/svg"><path fill="#0d6efd" d="M0 0h180v180H0z"/><text fill="#fff" font-size="96" text-anchor="middle" x="90" y="125" font-family="sans-serif">6</text></svg><svg viewBox="0 0 180 180" id="7" xmlns="http://www.w3.org/2000/svg"><path fill="#6610f2" d="M0 0h180v180H0z"/><text fill="#fff" font-size="96" text-anchor="middle" x="90" y="125" font-family="sans-serif">7</text></svg><svg viewBox="0 0 180 180" id="8" xmlns="http://www.w3.org/2000/svg"><path fill="#6f42c1" d="M0 0h180v180H0z"/><text fill="#fff" font-size="96" text-anchor="middle" x="90" y="125" font-family="sans-serif">8</text></svg><svg viewBox="0 0 180 180" id="9" xmlns="http://www.w3.org/2000/svg"><path fill="#d63384" d="M0 0h180v180H0z"/><text fill="#fff" font-size="96" text-anchor="middle" x="90" y="125" font-family="sans-serif">9</text></svg><svg viewBox="0 0 180 180" id="a" xmlns="http://www.w3.org/2000/svg"><path fill="#dc3545" d="M0 0h180v180H0z"/><text fill="#fff" font-size="96" text-anchor="middle" x="90" y="125" font-family="sans-serif">A</text></svg><svg viewBox="0 0 180 180" id="b" xmlns="http://www.w3.org/2000/svg"><path fill="#fd7e14" d="M0 0h180v180H0z"/><text fill="#fff" font-size="96" text-anchor="middle" x="90" y="125" font-family="sans-serif">B</text></svg><svg viewBox="0 0 180 180" id="c" xmlns="http://www.w3.org/2000/svg"><path fill="#ffc107" d="M0 0h180v180H0z"/><text fill="#fff" font-size="96" text-anchor="middle" x="90" y="125" font-family="sans-serif">C</text></svg><svg viewBox="0 0 180 180" id="check" xmlns="http://www.w3.org/2000/svg"><path fill="#3459e6" d="M0 0h180v180H0z"/><svg viewBox="-128 -128 768 768"><!--! Font Awesome Pro 6.2.0 by @fontawesome - https://fontawesome.com License - https://fontawesome.com/license (Commercial License) Copyright 2022 Fonticons, Inc.--><path fill="#fff" d="M470.6 105.4c12.5 12.5 12.5 32.8 0 45.3l-256 256c-12.5 12.5-32.8 12.5-45.3 0l-128-128c-12.5-12.5-12.5-32.8 0-45.3s32.8-12.5 45.3 0L192 338.7l233.4-233.3c12.5-12.5 32.8-12.5 45.3 0z"/></svg></svg><svg viewBox="0 0 180 180" id="d" xmlns="http://www.w3.org/2000/svg"><path fill="#198754" d="M0 0h180v180H0z"/><text fill="#fff" font-size="96" text-anchor="middle" x="90" y="125" font-family="sans-serif">D</text></svg><svg viewBox="0 0 180 180" id="e" xmlns="http://www.w3.org/2000/svg"><path fill="#20c997" d="M0 0h180v180H0z"/><text fill="#fff" font-size="96" text-anchor="middle" x="90" y="125" font-family="sans-serif">E</text></svg><svg viewBox="0 0 180 180" id="f" xmlns="http://www.w3.org/2000/svg"><path fill="#0dcaf0" d="M0 0h180v180H0z"/><text fill="#fff" font-size="96" text-anchor="middle" x="90" y="125" font-family="sans-serif">F</text></svg><svg viewBox="0 0 180 180" id="g" xmlns="http://www.w3.org/2000/svg"><path fill="#0d6efd" d="M0 0h180v180H0z"/><text fill="#fff" font-size="96" text-anchor="middle" x="90" y="125" font-family="sans-serif">G</text></svg><svg viewBox="0 0 180 180" id="h" xmlns="http://www.w3.org/2000/svg"><path fill="#6610f2" d="M0 0h180v180H0z"/><text fill="#fff" font-size="96" text-anchor="middle" x="90" y="125" font-family="sans-serif">H</text></svg><svg viewBox="0 0 180 180" id="i" xmlns="http://www.w3.org/2000/svg"><path fill="#6f42c1" d="M0 0h180v180H0z"/><text fill="#fff" font-size="96" text-anchor="middle" x="90" y="125" font-family="sans-serif">I</text></svg><svg viewBox="0 0 180 180" id="j" xmlns="http://www.w3.org/2000/svg"><path fill="#d63384" d="M0 0h180v180H0z"/><text fill="#fff" font-size="96" text-anchor="middle" x="90" y="125" font-family="sans-serif">J</text></svg><svg viewBox="0 0 180 180" id="k" xmlns="http://www.w3.org/2000/svg"><path fill="#dc3545" d="M0 0h180v180H0z"/><text fill="#fff" font-size="96" text-anchor="middle" x="90" y="125" font-family="sans-serif">K</text></svg><svg viewBox="0 0 180 180" id="l" xmlns="http://www.w3.org/2000/svg"><path fill="#fd7e14" d="M0 0h180v180H0z"/><text fill="#fff" font-size="96" text-anchor="middle" x="90" y="125" font-family="sans-serif">L</text></svg><svg viewBox="0 0 180 180" id="m" xmlns="http://www.w3.org/2000/svg"><path fill="#ffc107" d="M0 0h180v180H0z"/><text fill="#fff" font-size="96" text-anchor="middle" x="90" y="125" font-family="sans-serif">M</text></svg><svg viewBox="0 0 180 180" id="n" xmlns="http://www.w3.org/2000/svg"><path fill="#198754" d="M0 0h180v180H0z"/><text fill="#fff" font-size="96" text-anchor="middle" x="90" y="125" font-family="sans-serif">N</text></svg><svg viewBox="0 0 180 180" id="none" xmlns="http://www.w3.org/2000/svg"><path fill="#6c757d" d="M0 0h180v180H0z"/><svg viewBox="-128 -128 704 768"><!--! Font Awesome Pro 6.2.0 by @fontawesome - https://fontawesome.com License - https://fontawesome.com/license (Commercial License) Copyright 2022 Fonticons, Inc.--><path fill="#fff" d="M224 256c70.7 0 128-57.3 128-128S294.7 0 224 0 96 57.3 96 128s57.3 128 128 128zm-45.7 48C79.8 304 0 383.8 0 482.3 0 498.7 13.3 512 29.7 512h388.6c16.4 0 29.7-13.3 29.7-29.7 0-98.5-79.8-178.3-178.3-178.3h-91.4z"/></svg></svg><svg viewBox="0 0 180 180" id="o" xmlns="http://www.w3.org/2000/svg"><path fill="#20c997" d="M0 0h180v180H0z"/><text fill="#fff" font-size="96" text-anchor="middle" x="90" y="125" font-family="sans-serif">O</text></svg><svg viewBox="0 0 180 180" id="p" xmlns="http://www.w3.org/2000/svg"><path fill="#0dcaf0" d="M0 0h180v180H0z"/><text fill="#fff" font-size="96" text-anchor="middle" x="90" y="125" font-family="sans-serif">P</text></svg><svg viewBox="0 0 180 180" id="q" xmlns="http://www.w3.org/2000/svg"><path fill="#0d6efd" d="M0 0h180v180H0z"/><text fill="#fff" font-size="96" text-anchor="middle" x="90" y="125" font-family="sans-serif">Q</text></svg><svg viewBox="0 0 180 180" id="r" xmlns="http://www.w3.org/2000/svg"><path fill="#6610f2" d="M0 0h180v180H0z"/><text fill="#fff" font-size="96" text-anchor="middle" x="90" y="125" font-family="sans-serif">R</text></svg><svg viewBox="0 0 180 180" id="s" xmlns="http://www.w3.org/2000/svg"><path fill="#6f42c1" d="M0 0h180v180H0z"/><text fill="#fff" font-size="96" text-anchor="middle" x="90" y="125" font-family="sans-serif">S</text></svg><svg viewBox="0 0 180 180" id="t" xmlns="http://www.w3.org/2000/svg"><path fill="#d63384" d="M0 0h180v180H0z"/><text fill="#fff" font-size="96" text-anchor="middle" x="90" y="125" font-family="sans-serif">T</text></svg><svg viewBox="0 0 180 180" id="u" xmlns="http://www.w3.org/2000/svg"><path fill="#dc3545" d="M0 0h180v180H0z"/><text fill="#fff" font-size="96" text-anchor="middle" x="90" y="125" font-family="sans-serif">U</text></svg><svg viewBox="0 0 180 180" id="v" xmlns="http://www.w3.org/2000/svg"><path fill="#fd7e14" d="M0 0h180v180H0z"/><text fill="#fff" font-size="96" text-anchor="middle" x="90" y="125" font-family="sans-serif">V</text></svg><svg viewBox="0 0 180 180" id="w" xmlns="http://www.w3.org/2000/svg"><path fill="#ffc107" d="M0 0h180v180H0z"/><text fill="#fff" font-size="96" text-anchor="middle" x="90" y="125" font-family="sans-serif">W</text></svg><svg viewBox="0 0 180 180" id="x" xmlns="http://www.w3.org/2000/svg"><path fill="#198754" d="M0 0h180v180H0z"/><text fill="#fff" font-size="96" text-anchor="middle" x="90" y="125" font-family="sans-serif">X</text></svg><svg viewBox="0 0 180 180" id="y" xmlns="http://www.w3.org/2000/svg"><path fill="#20c997" d="M0 0h180v180H0z"/><text fill="#fff" font-size="96" text-anchor="middle" x="90" y="125" font-family="sans-serif">Y</text></svg><svg viewBox="0 0 180 180" id="z" xmlns="http://www.w3.org/2000/svg"><path fill="#0dcaf0" d="M0 0h180v180H0z"/><text fill="#fff" font-size="96" text-anchor="middle" x="90" y="125" font-family="sans-serif">Z</text></svg></svg>